<svg xmlns="http://www.w3.org/2000/svg" viewBox="0 0 76.96 63"><defs><style>.cls-1{fill:#444;fill-rule:evenodd;opacity:.4}</style></defs><title>business_1</title><g id="Layer_2" data-name="Layer 2"><g id="Layer_1-2" data-name="Layer 1"><path class="cls-1" d="M46.35,0,77,9.69V62.37H46.35V4.94L35.17,10.75v9h-4.5V8.19l1.06-.69L46.35,0ZM17,21.44V62.37H39.48V23.81L17,16.5,6.06,21.69l-1.12.62V36L.69,40.75,0,41.37V63H4.56V43.12l4.25-4.93.62-.69V24.87L17,21.44Zm3.62,1.31h0l3.88,1.06h0v5.38h0l-3.88-.88h0V22.75ZM33.67,40.94h0v4.75h2.81v-4.5h0l-2.81-.25Zm-6-.44h0v5.19h3.25V40.75h0l-3.25-.25Zm-7.06-.38h0l3.88.19h0v5.38H20.61V40.12Zm13.06-6.68h0v4.93h0l2.81.25h0v-4.5h0l-2.81-.68Zm-6-.82h0v5.13h0l3.25.19h0V33h0l-3.25-.38ZM20.61,31.5h0l3.88.44h0v5.37h0l-3.88-.19h0V31.5Zm13.06-5.31h0v4.68h0l2.81.63h0V26.81h0l-2.81-.62Zm-6-1.5h0v5.12h0l3.25.63h0V25.5h0l-3.25-.81ZM51.47,8.37h0v7.75h0l4.94.82h0V9.69h0L51.47,8.37ZM69,33h0v6.69h3.68V33.25h0L69,33Zm-8.12-.38h0v7.07h4.31V32.81h0l-4.31-.19Zm-9.44-.68h0v7.75h4.94v-7.5h0l-4.94-.25ZM69,23.19h0v6.43h0l3.68.38h0V23.62h0L69,23.19Zm-8.12-1.5h0v7.06h0l4.31.44h0V22.5h0l-4.31-.81Zm-9.44-1.5h0v7.68h0l4.94.44h0V21h0l-4.94-.81ZM69,13.12h0V19.5h0l3.68.87h0V13.94h0L69,13.12Zm-8.12-2.18h0V18h0l4.31.87h0V12h0l-4.31-1.06Z"/></g></g></svg>