<svg xmlns="http://www.w3.org/2000/svg" viewBox="0 0 73.98 73.86"><defs><style>.cls-1{fill:#444;fill-rule:evenodd;opacity:.6}</style></defs><title>construction</title><g id="Layer_2" data-name="Layer 2"><g id="Layer_1-2" data-name="Layer 1"><path class="cls-1" d="M121.86,516h17.3v8.16H186v12h-6v3.41h-6.67V559h3.08v11h-2l-.22,3.67c-.9,1.18-2.52,3.13-3.42,4.31.41.3,1.06,1.11,1.46,1.4l4.91-2.1c-.81,6.08-8.76,6.31-10.13,1q1.28-2.79,2.57-5.58L168.5,570h-1.62V559h3V539.52h-5.9v-3.41H139.16v44.23H156v9.52H112.12v-9.52h7.32V536.11H112v-12h7.44V516Zm10.62,64.34c-1.52-1.16-5.29-3.41-8.19-5.09v5.09Zm-.54-36c-1.75-1.22-5-3.19-7.65-4.7v4.7Zm2.38-6.42h-4.49c1.54,1.14,3.13,2.36,4.49,3.48v-3.48Zm-1.48,18.66a89.61,89.61,0,0,0-8.55-5.37v5.37Zm1.48-7.1h-4.49c1.54,1.14,3.13,2.36,4.49,3.49v-3.49Zm-2,18.94c-1.61-1.19-5.23-3.34-8-5v5Zm2-6.69h-4.49c1.54,1.14,3.13,2.36,4.49,3.48v-3.48Zm0,11.83h-4.49c1.54,1.15,3.13,2.36,4.49,3.49v-3.49Zm4.84-44.21V531h42v-1.66ZM119.44,531v-1.66h-2.59V531Zm4.85-6.81h10v-3h-10v3Zm10,5.15h-10V531h10Z" transform="translate(-112 -516)"/></g></g></svg>