<?xml version="1.0" encoding="utf-8"?>
<!-- Generator: Adobe Illustrator 22.0.1, SVG Export Plug-In . SVG Version: 6.00 Build 0)  -->
<svg version="1.1" id="Layer_1" xmlns="http://www.w3.org/2000/svg" xmlns:xlink="http://www.w3.org/1999/xlink" x="0px" y="0px"
	 viewBox="0 0 93.5 59.8" style="enable-background:new 0 0 93.5 59.8;" xml:space="preserve">
<style type="text/css">
	.st0{opacity:0.4;fill:#444444;enable-background:new    ;}
</style>
<title>education</title>
<g>
	<path class="st0" d="M88.8,0H4.1c-5.5,0-5.5,8.3,0,8.3h84.6C94.3,8.3,94.3,0,88.8,0z"/>
	<path class="st0" d="M93.3,55.1l-4-18V13.5h-4.2v23.6l-4,18c-1,4.4,2.6,4.7,6.1,4.7C90.7,59.8,94.3,59.7,93.3,55.1z"/>
	<path class="st0" d="M72.3,13.5H20.6l-3.3,14c-0.7,2.1,0,4.4,2.1,5c9.4,1.4,18.5,4.2,27.1,8.3c8.6-4.1,17.7-6.9,27.1-8.3
		c2.1-0.6,2.8-2.9,2.1-5L72.3,13.5z"/>
</g>
</svg>
