<svg xmlns="http://www.w3.org/2000/svg" viewBox="0 0 93.49 59.82"><defs><style>.cls-1{fill:#444;fill-rule:evenodd;opacity:.6}</style></defs><title>education</title><g id="Layer_2" data-name="Layer 2"><g id="Layer_1-2" data-name="Layer 1"><path class="cls-1" d="M4.12,0H88.76c5.5,0,5.5,8.34,0,8.34H4.12c-5.49,0-5.5-8.34,0-8.34Z"/><path class="cls-1" d="M88,31.29l5.27,23.85c1,4.54-2.53,4.7-6.08,4.68s-7.1-.24-6.12-4.68l5.37-23.86Z"/><path class="cls-1" d="M46.44,40.83A97.31,97.31,0,0,0,19.38,32.5c-2.12-.65-2.81-2.87-2.1-5l3.29-14H72.31l3.29,14c.71,2.13,0,4.35-2.1,5a97.31,97.31,0,0,0-27.06,8.33Z"/><polygon class="cls-1" points="85.11 13.54 89.3 13.54 89.3 40.35 85.11 40.35 85.11 13.54 85.11 13.54"/></g></g></svg>