<svg xmlns="http://www.w3.org/2000/svg" viewBox="0 0 86.96 65"><defs><style>.cls-1{fill:#444;fill-rule:evenodd;opacity:.4}</style></defs><title>entertainment_1</title><g id="Layer_2" data-name="Layer 2"><g id="Layer_1-2" data-name="Layer 1"><path class="cls-1" d="M38.67,56.44l1.75,2.87h0l.87,1.19,1.13,1.12h0l.81.88.81.69.69.56.69.44.74.25.88.25,1.06.18,1.19.07h0L50,65h2.43l.88-.06,1-.07,1.06-.25.87-.18,5-1.82h0l2.13-1.25L65.59,60l2-1.5,1.88-1.63,1.93-1.81,1.81-1.81,1.63-2,1.62-2.06L78,47.06l1.44-2.12L81,42.69l1.31-2.25,1.25-2.25,1.25-2.25,2.12-4.44h0l.07-.25V31l-.13-.56-.37-.5-.57-.69-.74-.63-.82-.68-2-1.38-2.18-1.37L78,23.94l-3-1.82h0L73,21,69.9,19.37l-3.25-1.68-1.31-.57-.87-.37-4.5-2h0l-1.81-.69-2.31-.87-2.5-.88L51,11.56h0l.68,3.19L52.29,18l.43,3.25L53,24.56h0L54,25.75h0l.5.69.38.62.44.69.25.69.25.68.18.69.07.63V31h0l-.07.5-.12.5-.25.44-.25.37-.25.25-.38.31-.43.19-.32.19h0l-.49.06-.63.13h0l-.25,1.87-.25,1.94L52,39.62l-.5,1.82h0l.94.12.88.13.81.18.87.38h0l1.06.44.94.68.88.69.75.88.68.87.63,1,.5,1.06.37,1.19h0l.32,1.25.25,1.19.18,1.31L61.6,54l.18,2.25V58h0v1.37l-.06.13H61.6l-.07-.25-.31-.88h0l-.69-1.56L59.66,55l-.56-1.06-.69-1.07-.69-.93L57,51h0l-.81-.81-.81-.69-1-.69-1-.5-.94-.5-1.12-.37-1.07-.38-1.12-.12L48,49.19h0l-.5.68-.69.88-.69.75-.62.62h0l-1.19,1.13h0l-.62.5-.57.56h0l-1.31.81-1.06.69-1,.38-1.06.25ZM0,14.5H0v-.25L.12,14l.25-.44L1,12.94l.69-.5,1.37-.88.94-.5H4L6.06,10,9,8.69,12,7.5l2.38-.81,4.74-1.57h0l.82-.31,1.43-.44,3.5-.93,3.56-.88L30.55,2h0l3.56-.75L36.54.81,39.1.37,41.54.12,42.67,0h.93l.88.12.69.19.5.25.18.19.06.25h0l1.32,4.81.62,2.56.56,2.57.5,2.5.44,2.68.38,2.63.18,2.69L50,24.06l.12,2.69L50,29.31l-.25,2.63-.31,2.56-.57,2.56-.56,2.38-.87,2.43L45,46.62h0l-.5.75-.69.82-.69.87-.62.63h0l-1.19,1.12h0l-.62.5-.63.44h0l-1,.81-.87.5-.88.44-.75.25-.81.19-.94.06H32.61L31,53.87l-1.56-.31-3.5-1.12h0l-1.56-.69L22.86,51l-1.43-.88-1.38-1.06h0l-1.12-.94h0l-1.19-.93h0l-1.12-1.07h0L15.55,45l-1.06-1.19h0l-2.06-2.5L10.56,38.5h0l-.94-1.38-.87-1.56L7,32.5H7L5.87,30.25,4.87,28l-.93-2.13-.88-2.18L2.25,21.5,1.5,19.25,0,14.5Zm30.67,3.87h0l.25-.5.31-.5.44-.56.56-.5.57-.5.68-.44.69-.43.69-.38h0l1.68-.69,1.63-.5L39.73,13,41,12.69h0l2.69-.63h0l.18-.06.07.06.12.13v.31h0l-.12,1.12-.32,1.82h0l-.25,1.12-.43,1.25-.25.56-.38.63-.5.62-.5.5h0l-.62.5-.69.44-.81.44-.75.37-.75.32-.88.31-.81.12-.69.19H33.42l-.5-.19-.56-.06-.31-.25-.44-.25-.38-.25h0L31,21.44l-.25-.38-.18-.44-.07-.37-.06-.44v-.44l.06-.56.19-.44Zm-8.56,2.57h0l-.5-.32L21,20.37l-.63-.12-.75-.19-.68-.12H17.3l-.87.12h0l-1.63.31-1.68.57-1.5.5-1.25.43h0l-2.56.94h0l-.25.13v.12l.12.25h0l.69.88,1.31,1.43h0l.81.75,1,.88.63.31.56.31.75.25.75.19h0l.75.06h.87l.88-.06.87-.12.75-.25.88-.19.75-.25.75-.38h0l.56-.31.5-.25.44-.44.37-.37.31-.31.32-.44.12-.44.13-.44h0l.06-.43v-.44l-.06-.44-.13-.44-.12-.43-.32-.32-.31-.37-.44-.31ZM19.61,40h0l2.44.75,2.38.62,1.24.25,1.19.19,1.19.06H29.3l1.18-.18,1.19-.13,1.13-.37L34,40.75l1-.63,1.13-.56.94-.69L38,38h0l.88-.88.81-1.06.56-.94L41,34.06l1-1.81.69-1.44h0l.43-1,.07-.12.06-.13.12.13V30l-.12,1.12h0l-.06,1.75L43,35.12l-.19,1.32-.25,1.18-.31,1.32-.38,1.18h0l-.5,1.19-.5,1.13-.62.93-.75.94-.88.81-.87.69-1.06.56-1,.44h0l-1.25.38-1.19.18-1.31.07-1.25-.07-1.25-.12L28.17,47l-1.25-.44-1.12-.44h0l-.94-.5-.93-.68-.88-.69-.75-.81-.69-.75-.68-.88L19.61,40Zm44.67-5.13h0l.44-.37.5-.31.62-.25.69-.32.69-.12.81-.19.75-.06.87-.13h0l1.75.13,1.63.12,1.56.25,1.25.32h0l2.68.5h.19l.06.06v.12l-.06.25h0l-.62,1.07-.94,1.43h0l-.69.94-.87,1-.5.44-.63.37-.56.38-.69.25h0l-.81.19-.75.18-.87.07H69.9L69,41.12,68.28,41l-1.56-.25h0l-.63-.25-.56-.25L65,40l-.44-.25-.31-.38L64,39l-.25-.38-.19-.37h0l-.19-.44-.06-.44v-.43l.06-.44.07-.44.31-.44.25-.31.31-.44Z"/></g></g></svg>