<svg xmlns="http://www.w3.org/2000/svg" viewBox="0 0 60.97 64"><defs><style>.cls-1{fill:#444;fill-rule:evenodd;opacity:.6}</style></defs><title>financial</title><g id="Layer_2" data-name="Layer 2"><g id="Layer_1-2" data-name="Layer 1"><polygon class="cls-1" points="43.98 27 43.98 49 50.98 49 50.98 27 43.98 27 43.98 27"/><polygon class="cls-1" points="26.99 27 26.99 49 34.98 49 34.98 27 26.99 27 26.99 27"/><polygon class="cls-1" points="10.99 27 10.99 49 17.99 49 17.99 27 10.99 27 10.99 27"/><polygon class="cls-1" points="26.86 53 26.86 53 26.43 53 26.18 52.81 25.99 52.38 25.99 52.19 25.99 51.13 25.99 51.13 25.99 50.69 26.18 50.44 26.43 50.25 26.86 50 35.17 50 35.17 50 35.61 50.25 35.73 50.44 35.98 50.69 35.98 51.13 35.98 52.19 35.98 52.19 35.98 52.38 35.73 52.81 35.61 53 35.17 53 26.86 53 26.86 53"/><polygon class="cls-1" points="10.18 56 10.18 56 8.43 55.88 7.18 55.75 6.31 55.63 6 55.44 6 55.31 6 54.63 6 54.63 6 54.63 6.31 54.44 7.18 54.19 8.43 54 10.18 54 51.85 54 51.85 54 53.6 54 54.85 54.19 55.72 54.44 55.97 54.63 55.97 54.63 55.97 55.31 55.97 55.31 55.97 55.44 55.72 55.63 54.85 55.75 53.6 55.88 51.85 56 10.18 56 10.18 56"/><polygon class="cls-1" points="7.68 60 7.68 60 5.87 59.88 4.43 59.75 3.44 59.63 3.19 59.44 3 59.31 3 58.63 3 58.63 3.19 58.44 3.44 58.44 4.43 58.19 5.87 58 7.68 58 54.35 58 54.35 58 56.16 58 57.6 58.19 58.6 58.44 58.85 58.44 58.97 58.63 58.97 59.31 58.97 59.31 58.85 59.44 58.6 59.63 57.6 59.75 56.16 59.88 54.35 60 7.68 60 7.68 60"/><polygon class="cls-1" points="5 64 5 64 3 64 1.44 63.88 0.44 63.75 0.19 63.56 0 63.44 0 62.63 0 62.63 0.19 62.5 0.44 62.31 1.44 62.19 3 62 5 62 56.03 62 56.03 62 58.03 62 59.6 62.19 60.59 62.31 60.84 62.5 60.97 62.63 60.97 63.44 60.97 63.44 60.84 63.56 60.59 63.75 59.6 63.88 58.03 64 56.03 64 5 64 5 64"/><polygon class="cls-1" points="42.85 53 42.85 53 42.54 53 42.29 52.81 42.17 52.38 41.98 52.19 41.98 51.13 41.98 51.13 42.17 50.69 42.29 50.44 42.54 50.25 42.85 50 51.16 50 51.16 50 51.48 50.25 51.73 50.44 51.85 50.69 51.98 51.13 51.98 52.19 51.98 52.19 51.85 52.38 51.73 52.81 51.48 53 51.16 53 42.85 53 42.85 53"/><polygon class="cls-1" points="9.93 53 9.93 53 9.62 53 9.31 52.81 9.18 52.38 9 52.19 9 51.13 9 51.13 9.18 50.69 9.31 50.44 9.62 50.25 9.93 50 19.12 50 19.12 50 19.43 50.25 19.74 50.44 19.86 50.69 19.99 51.13 19.99 52.19 19.99 52.19 19.86 52.38 19.74 52.81 19.43 53 19.12 53 9.93 53 9.93 53"/><polygon class="cls-1" points="26.86 26 26.86 26 26.43 26 26.18 25.88 25.99 25.75 25.99 25.44 25.99 24.63 25.99 24.63 25.99 24.31 26.18 24.19 26.43 24 26.86 24 35.17 24 35.17 24 35.61 24 35.73 24.19 35.98 24.31 35.98 24.63 35.98 25.44 35.98 25.44 35.98 25.75 35.73 25.88 35.61 26 35.17 26 26.86 26 26.86 26"/><polygon class="cls-1" points="42.85 26 42.85 26 42.54 26 42.29 25.88 42.17 25.75 41.98 25.44 41.98 24.63 41.98 24.63 42.17 24.31 42.29 24.19 42.54 24 42.85 24 51.16 24 51.16 24 51.48 24 51.73 24.19 51.85 24.31 51.98 24.63 51.98 25.44 51.98 25.44 51.85 25.75 51.73 25.88 51.48 26 51.16 26 42.85 26 42.85 26"/><polygon class="cls-1" points="9.93 26 9.93 26 9.62 26 9.31 25.88 9.18 25.75 9 25.44 9 24.63 9 24.63 9.18 24.31 9.31 24.19 9.62 24 9.93 24 19.12 24 19.12 24 19.43 24 19.74 24.19 19.86 24.31 19.99 24.63 19.99 25.44 19.99 25.44 19.86 25.75 19.74 25.88 19.43 26 19.12 26 9.93 26 9.93 26"/><polygon class="cls-1" points="54.97 21 34.67 6.38 34.67 6.38 32.11 4.63 31.42 4.19 30.73 4 29.86 4.31 29.05 4.81 26.36 6.69 6 21 54.97 21 54.97 21"/><polygon class="cls-1" points="1.75 21 1.75 21 2.62 20.88 3.44 20.75 4.43 20.25 5.18 19.94 26.99 4.81 26.99 4.81 28.98 3.56 29.73 3.13 30.42 2.94 31.17 2.94 32.17 3.25 33.17 3.88 34.61 4.81 55.97 19.94 55.97 19.94 56.72 20.25 57.6 20.75 58.6 20.88 59.41 21 60.16 21 60.16 21 60.72 20.88 60.97 20.75 60.84 20.25 60.41 19.94 36.17 2.63 36.17 2.63 34.3 1.44 32.86 0.63 31.73 0.19 30.73 0 29.73 0.19 28.73 0.63 25.61 2.63 0.62 19.94 0.62 19.94 0.19 20.25 0 20.75 0.31 20.88 0.87 21 1.75 21 1.75 21"/></g></g></svg>