<?xml version="1.0" encoding="utf-8"?>
<!-- Generator: Adobe Illustrator 22.0.1, SVG Export Plug-In . SVG Version: 6.00 Build 0)  -->
<svg version="1.1" id="Layer_1" xmlns="http://www.w3.org/2000/svg" xmlns:xlink="http://www.w3.org/1999/xlink" x="0px" y="0px"
	 viewBox="0 0 59 60" style="enable-background:new 0 0 59 60;" xml:space="preserve">
<style type="text/css">
	.st0{fill:#444;fill-rule:evenodd;opacity:.4}
</style>
<title>food-beverage</title>
<path class="st0" d="M58.8,26.9l-0.2-1.5L58.4,24l-0.3-1.5l-0.4-1.4l-0.4-1.3l-0.6-1.4l-0.6-1.3l-0.7-1.3l-0.7-1.2L54,13.2l-0.8-1.2
	l-0.9-1.1l-0.9-1.1l-1-1l-1-1l-1.1-0.9L47.2,6L46,5.2l-1.2-0.8l-1.2-0.7L42.3,3L41,2.4l-1.3-0.5l-1.4-0.5L36.9,1l-1.4-0.4L34,0.4
	l-1.4-0.2L31,0.1L29.5,0L28,0.1l-1.5,0.1L25,0.4l-1.4,0.2L22.1,1l-1.4,0.4l-1.4,0.5L18,2.4L16.7,3l-1.2,0.7l-1.2,0.7l-1.2,0.8
	L11.9,6l-1.1,0.9L9.7,7.8l-1,1l-1,1l-0.9,1.1l-0.9,1.1l-0.8,1.2l-0.8,1.2l-0.7,1.2l-0.7,1.3l-0.6,1.3l-0.6,1.4l-0.4,1.3l-0.4,1.4
	L0.6,24l-0.2,1.4l-0.2,1.5l-0.1,1.6L0,30l0.1,1.6l0.1,1.6l0.2,1.5l0.2,1.4l0.3,1.4l0.4,1.4l0.4,1.4l0.6,1.4L2.9,43l0.7,1.3l0.7,1.2
	l0.8,1.2L5.9,48l0.9,1.1l0.9,1.1l1,1.1l1,1l1.1,0.9l1.1,0.9l1.2,0.8l1.2,0.8l1.2,0.7l1.2,0.7l1.3,0.6l1.3,0.6l1.4,0.5l1.4,0.4
	l1.4,0.3l1.4,0.3l1.5,0.2L28,60h1.5H31l1.5-0.1l1.4-0.2l1.5-0.3l1.4-0.3l1.4-0.4l1.4-0.5l1.3-0.6l1.3-0.6l1.2-0.7l1.2-0.7l1.2-0.8
	l1.2-0.8l1.1-0.9l1.1-0.9l1-1l1-1.1l0.9-1.1l0.9-1.1l0.8-1.2l0.8-1.2l0.7-1.2l0.7-1.3l0.6-1.3l0.6-1.4l0.4-1.4l0.4-1.4l0.3-1.4
	l0.2-1.4l0.2-1.5l0.1-1.6V30v-1.5L58.8,26.9z M49,14.6L49,14.6v0.2l-0.1,0.3l-0.2,0.3L38.3,28.4L38,28.8L37.7,29l-0.4,0.2l-0.4,0.1
	h-0.2h-0.2h-0.2H36l-0.2-0.1l-0.2-0.1l-0.2-0.1l-0.2-0.2l-1.4-1.1L31,31.4l13.2,14.2l0.3,0.4l0.2,0.3l0.1,0.2l0.1,0.3v0.1v0.2
	l-0.1,0.1v0.1l-0.2,0.2l-0.2,0.3l-2.1,1.7L42,49.9L41.8,50h-0.2h-0.1h-0.1h-0.1L41,49.9l-0.2-0.2l-0.2-0.3l-0.3-0.3L28.9,34.2
	L16.9,50.1l-0.2,0.3l-0.3,0.3L16,50.9L15.8,51h-0.1h-0.1h-0.1h-0.1L15,50.9l-0.3-0.2l-2.1-1.8l-0.3-0.2l-0.2-0.3l-0.1-0.1L12,48.1
	v-0.2v-0.1l0.1-0.3l0.1-0.2l0.2-0.3l0.3-0.4l14.1-15.1L23,26.4l-0.5,0.2l-0.4,0.2L21.7,27l-0.5,0.1l-0.5,0.1l-0.5,0.1h-0.5h-0.6
	l-0.5-0.1L18,27.1l-0.6-0.2L17,26.8l-0.6-0.2l-0.6-0.2l-0.6-0.4l-0.6-0.4l-0.6-0.6l-0.5-0.6l-0.6-0.6l-0.5-0.7l-0.4-0.7l-0.4-0.8
	l-0.4-0.8L11,20l-0.3-0.8l-0.2-0.9l-0.2-0.8l-0.1-0.8L10,15.8v-0.8l0.1-0.8l0.1-0.8l0.1-0.4l0.1-0.4l0.1-0.4l0.2-0.3l0.1-0.3
	l0.2-0.2l0.2-0.3l0.2-0.2l0.3-0.2l0.2-0.2l0.3-0.1l0.3-0.1l0.4-0.1l0.4-0.1l0.4-0.1l0.4-0.1h0.8l0.8,0.1l0.8,0.1l0.8,0.2l0.8,0.2
	l0.8,0.4l0.7,0.4l0.8,0.4l0.8,0.4l0.8,0.6l0.6,0.6l0.6,0.6l0.6,0.6l0.5,0.6l0.4,0.6l0.4,0.7l0.3,0.6l0.2,0.6l0.2,0.6l0.2,0.6
	l0.1,0.6l0.1,0.6v0.6v0.5l-0.1,0.5l-0.1,0.6l-0.1,0.5l-0.2,0.4l-0.2,0.4l-0.2,0.4l-0.2,0.4l-0.3,0.4l4.1,4.4l2.9-3.1l-1.4-1.2
	l-0.2-0.1l-0.1-0.2L30,24.6l-0.1-0.2l-0.1-0.2l-0.1-0.2v-0.2v-0.2l0.1-0.4l0.1-0.4l0.2-0.4l0.3-0.4L41.6,9.4l0.3-0.2l0.2-0.1L42.2,9
	h0.1h0.1l0.1,0.1l0.1,0.1v0.1l0.1,0.1l-0.1,0.1l-0.1,0.2L42.3,10l-7.7,9.7l-0.1,0.2L34.4,20v0.2l-0.1,0.1l0.1,0.1v0.1l0.1,0.1
	l0.1,0.1h0.1l0.1,0.1h0.1h0.1l0.2-0.1l0.1-0.1l0.1-0.1l0.1-0.1l8.3-9.2L44,11l0.2-0.1l0.1-0.1h0.1h0.1l0.1,0.1v0.1l0.1,0.1v0.1v0.1
	l-0.1,0.3l-0.2,0.3l-7.7,9.6l-0.1,0.2l-0.1,0.2l-0.1,0.1v0.1v0.1l0.1,0.1v0.1l0.1,0.1l0.1,0.1h0.1h0.1h0.2h0.1l0.1-0.1l0.1-0.1
	l0.2-0.1l8.2-9.2l0.2-0.2l0.2-0.1l0.1-0.1h0.1l0.1,0.1l0.1,0.1h0.1v0.1v0.1V13l-0.1,0.2l-0.1,0.3l-7.7,9.7l-0.1,0.2l-0.1,0.1
	l-0.1,0.2v0.1V24v0.1l0.1,0.1l0.1,0.1l0.1,0.1H39h0.1h0.1l0.1-0.1l0.1-0.1l0.2-0.1l0.1-0.2l8.2-9.2l0.2-0.2l0.2-0.1l0.1-0.1h0.1
	l0.1,0.1h0.1L49,14.6L49,14.6z"/>
</svg>
