<svg xmlns="http://www.w3.org/2000/svg" viewBox="0 0 65.97 74"><defs><style>.cls-1{fill:#444;fill-rule:evenodd;opacity:.6}</style></defs><title>fun_1</title><g id="Layer_2" data-name="Layer 2"><g id="Layer_1-2" data-name="Layer 1"><path class="cls-1" d="M31.86,37H33l2-.13,2.13-.25h0l2-.25L41,36.06h0l1.94-.5.93-.25.88-.31h0l.94-.5.81-.5h0l.75-.69.75-.94.25.13h0v1.25l-.07.62L48,35h0l-.25.62-.32.63-.31.5-.44.56h0l-.93.94-1,.81-1.06.75-1.07.63h0l-1.18.5-1.19.37-1.12.38L37.86,42h0l-1.13.19-1,.06-2.12.06H33l-1.25-.06-1.12-.06L29.36,42l-1.19-.25h0L27,41.5l-1.13-.44-1.18-.37-1.19-.5h0l-1.06-.63-1-.75-1-.81-.94-.94h0l-.37-.5-.38-.5h0l-.31-.56-.25-.63h0l-.25-.56-.06-.56-.13-.69V32.5l.25-.13h0l.69.94.75.75.81.56.87.5h0l.88.44.94.31h0l1,.25,1,.25h0l2,.25,2,.25h0l1.5.13ZM18.37,25.25h-.69L16.93,25l-.56-.31-.63-.44-.37-.56L15,23.12l-.25-.75-.06-.75h0l.06-.68.25-.75.38-.57.37-.62.63-.44.56-.31.75-.25.69-.06h0l.75.06.75.25.56.31L21,19l.44.62.31.57.19.75.06.68h0l-.06.75-.19.75-.31.57-.44.56-.56.44-.56.31-.75.25Zm29.29,0h-.75L46.23,25l-.56-.31-.57-.44-.43-.56-.32-.57-.25-.75L44,21.62h0l.12-.68.25-.75.32-.57L45.1,19l.57-.44.56-.31.68-.25.75-.06h0l.75.06.69.25.63.31.5.44.5.62.37.57.13.75.12.68h0l-.12.75-.13.75-.37.57-.5.56-.5.44L49.1,25l-.69.25ZM33,0h0L31.36.12,29.67.19,28,.37,26.36.62,24.74.87l-1.56.44-1.5.38-1.5.5-1.44.62-1.37.56-1.44.69-1.31.63-1.38.87L12,6.31l-1.12.94-1.19.87-1.06.94-1,1-1,1.06-.94,1.13-.81,1.06L4,14.5l-.75,1.19-.63,1.25L2,18.19l-.5,1.25-.38,1.31L.69,22,.44,23.44.19,24.75.12,26.19,0,27.62H0l.12,1.44.07,1.38.25,1.37.25,1.31.43,1.38.38,1.31L2,37.06l.62,1.25.63,1.25L4,40.75l.87,1.19L5.68,43l.94,1.12,1,1.07,1,1,1.06.93,1.19.88,1.12.87,1.25.82,1.38.75,1.31.75,1.44.68,1.37.57,1.44.62,1.5.5,1.5.38,1.56.37,1.62.31,1.63.25,1.68.19,1.69.06,1.62.07h0l1.69-.07,1.56-.06,1.63-.19,1.56-.18h0L40.48,57l1.19,2.25,1.43,2.31L44.67,64l1.74,2.44,1.94,2.5,2.06,2.5L52.72,74h0L51.6,71.19l-1-2.88-.94-2.75-.75-2.75-.68-2.56-.5-2.69-.38-2.5-.25-2.5h0l2.06-.87,2-1L53,49.5l1.75-1.13L56.41,47,58,45.62l1.44-1.43,1.31-1.63,1.19-1.62L63,39.19l.87-1.82.75-1.81.63-1.94.43-2,.25-2,.07-2h0l-.07-1.43-.06-1.44-.25-1.31L65.34,22,65,20.75l-.5-1.31L64,18.19l-.56-1.25-.69-1.25L62,14.5l-.75-1.19-.87-1.06-.94-1.13-.94-1.06-1.06-1-1.06-.94-1.19-.87L54,6.31l-1.25-.75-1.31-.87L50.1,4.06l-1.37-.69-1.38-.56-1.5-.62-1.5-.5-1.5-.38L41.23.87,39.67.62,38,.37,36.42.19,34.73.12,33,0Z"/></g></g></svg>