<svg xmlns="http://www.w3.org/2000/svg" viewBox="0 0 70.96 57"><defs><style>.cls-1{fill:#444;fill-rule:evenodd;opacity:.4}</style></defs><title>healthcare_1</title><g id="Layer_2" data-name="Layer 2"><g id="Layer_1-2" data-name="Layer 1"><polygon class="cls-1" points="23.74 27.44 33.3 11.06 42.48 38 49.35 27.44 67.03 27.44 67.03 27.44 67.22 26.69 67.4 25.94 67.59 25.19 67.72 24.38 67.84 23.63 67.97 22.88 67.97 22.06 67.97 21.25 67.97 21.25 67.97 20.19 67.9 19.13 67.78 18.06 67.65 17 67.47 15.94 67.22 15 66.91 14 66.59 13 66.28 12.06 65.84 11.13 65.47 10.25 64.97 9.38 64.47 8.56 63.97 7.75 63.41 7 62.84 6.25 62.22 5.56 61.59 4.88 60.91 4.25 60.22 3.69 59.53 3.13 58.78 2.63 58.03 2.13 57.22 1.69 56.41 1.31 55.6 1 54.79 0.69 53.91 0.5 53.04 0.25 52.16 0.13 51.23 0.06 50.35 0 50.35 0 49.41 0.06 48.54 0.13 47.6 0.31 46.73 0.5 45.85 0.69 45.04 1 44.17 1.38 43.42 1.75 42.6 2.19 41.85 2.69 41.1 3.19 40.36 3.75 39.67 4.38 38.98 5.06 38.36 5.75 37.73 6.44 37.73 6.44 37.11 5.75 36.48 5.06 35.8 4.38 35.11 3.75 34.36 3.19 33.61 2.69 32.86 2.19 32.05 1.75 31.23 1.38 30.42 1 29.55 0.69 28.74 0.5 27.86 0.31 26.92 0.13 25.99 0.06 25.11 0 25.11 0 24.18 0.06 23.3 0.13 22.43 0.25 21.55 0.5 20.68 0.69 19.86 1 18.99 1.31 18.24 1.69 17.43 2.13 16.68 2.63 15.93 3.13 15.24 3.69 14.56 4.25 13.87 4.88 13.24 5.56 12.62 6.25 11.99 7 11.49 7.75 10.93 8.56 10.49 9.38 9.99 10.25 9.56 11.13 9.18 12.06 8.81 13 8.5 14 8.25 15 8 15.94 7.81 17 7.68 18.06 7.56 19.13 7.5 20.19 7.43 21.25 7.43 21.25 7.43 21.94 7.5 22.56 7.56 23.19 7.62 23.81 0 23.81 0 27.44 23.74 27.44 23.74 27.44"/><polygon class="cls-1" points="70.97 31.25 50.79 31.25 41.04 46.31 32.17 20 25.61 31.25 9.99 31.25 9.99 31.25 10.62 32.44 11.37 33.62 12.12 34.81 12.93 35.94 13.74 37.06 14.68 38.19 15.62 39.25 16.55 40.31 17.55 41.37 18.55 42.37 19.55 43.37 20.61 44.31 21.68 45.25 22.74 46.19 23.74 47.06 24.8 47.94 26.92 49.5 28.92 51.06 30.8 52.37 32.55 53.62 35.48 55.62 36.55 56.44 37.42 57 37.42 57 38.17 56.44 39.17 55.69 41.79 53.87 43.29 52.81 44.98 51.62 46.66 50.37 48.54 48.94 50.41 47.5 52.29 45.94 53.22 45.12 54.16 44.25 55.1 43.44 56.03 42.5 56.97 41.62 57.85 40.75 58.72 39.81 59.6 38.81 60.41 37.81 61.22 36.87 61.97 35.81 62.66 34.81 70.97 34.81 70.97 31.25 70.97 31.25"/></g></g></svg>