<svg xmlns="http://www.w3.org/2000/svg" viewBox="0 0 79.47 45.69"><defs><style>.cls-1{fill:#444;fill-rule:evenodd;opacity:.6}</style></defs><title>home</title><g id="Layer_2" data-name="Layer 2"><g id="Layer_1-2" data-name="Layer 1"><path class="cls-1" d="M15.05,26.19h5.5v9.89h-5.5V26.19Zm48.7.41v9.48h-5.5V26.6H53.16l-3.32-4.9H29.94L18.68,5.11,7.39,21h.54v19.2h23.3V25.63h7V40.24H70.71l0-13.64ZM1.65,40.24v5.45H77.38V40.24h-1.8l0-13.64h3.91L67.26,8.6H52.74L46.92,0H15.65l0,0,0,0h-.38l.19.28L0,22.05l1.79,5.39H3v12.8Zm41.55-14h5.5v9.89H43.2Z"/></g></g></svg>