<svg xmlns="http://www.w3.org/2000/svg" viewBox="0 0 78.96 65"><defs><style>.cls-1{fill:#444;fill-rule:evenodd;opacity:.4}</style></defs><title>information</title><g id="Layer_2" data-name="Layer 2"><g id="Layer_1-2" data-name="Layer 1"><path class="cls-1" d="M67.65,33.81h0l1.25.69,1.19.75,1.06.94.94.87.94,1,.68,1.07.63,1.12.44,1.13h0l.31,1,.12,1,.13,1-.13,1L75,46.44l-.25.87-.44,1-.56.88h0l-.69,1-.81.81-.94.75-1,.69-1.06.62-1.19.44L67,53.94l-1.19.31h0l-.31.13-.31.18-.31.19-.25.25-.13.31-.06.32-.13.37v.38L65,60.06h0l-.69-.43-.68-.57h0l-.82-.75L62,57.5l-.75-.94-.75-1h0l-.25-.31L59.85,55l-.38-.25-.37-.06h0l-1.25-.13-1.19-.31-1.19-.31-1.12-.38-1.19-.43-1.06-.5-1-.57-1-.68h0l-.81-.69-.88-.63-.75-.81L47,48.44l-.63-.81-.5-.94-.37-.88-.44-1-.19-.93-.18-1v-1l.12-1.07.19-.93.31-1,.44-1,.68-.94h0l.5-.63.44-.5,1.06-1L49.6,34l1.19-.69,1.31-.62,1.37-.44,1.5-.31,1.44-.19,1.44-.13h1.43l1.57.19,1.43.19,1.5.31,1.38.38,1.24.56,1.25.56Zm-24.17,1h0l-.88,1.25-.68,1.38-.44,1.31-.31,1.31L41,41.44v1.37l.19,1.32.25,1.31.43,1.25L42.42,48l.68,1.19.75,1.12.94,1.13.94,1,1.12,1,1.13.87h0l1.06.75,1.19.63,1.18.62,1.25.5,1.19.44,1.31.38,1.31.31,1.38.25h0l.87,1.06.81.94.88.94,1,.81h0l1.12.81,1.31.75,1.44.75,1.56.69h0l.38.06h.68l.38-.12.31-.13.19-.25.25-.31.19-.31h0l.06-.25.06-.38-.06-.62-1-5.32h0l1.37-.5L71,56.19l1.18-.63,1.13-.68L74.34,54l.87-.87.88-.94.75-1h0l.75-1.25.62-1.31.38-1.38.25-1.37L79,44.44l-.06-1.31-.19-1.44-.44-1.44h0L78,39.5l-.31-.75-.81-1.37L76,36,74.9,34.75,73.71,33.5l-1.37-1-1.44-1-1.56-.94h0l-1.56-.62-1.63-.69-1.68-.44-1.81-.44-1.75-.25L59.1,28H57.35l-1.82.19-1.74.31L52,28.94l-1.69.62-1.56.63-.75.5-.75.43-.69.5-.69.57-.68.56-.63.69-.62.62-.5.75Z"/><polygon class="cls-1" points="35.98 0.94 35.98 0.94 37.29 1.25 38.42 1.63 39.6 2.06 40.73 2.5 41.92 2.94 42.98 3.5 43.98 4.06 44.98 4.63 45.98 5.25 46.91 5.88 47.79 6.56 48.6 7.25 49.48 7.94 50.23 8.75 50.91 9.5 51.6 10.38 52.22 11.13 52.85 12 53.41 12.88 53.85 13.75 54.29 14.69 54.72 15.5 54.97 16.44 55.29 17.44 55.53 18.38 55.78 19.31 55.91 20.31 55.97 21.31 55.97 22.19 55.97 23.19 55.91 24.19 55.78 25.25 55.78 25.25 54.72 25.38 54.72 25.38 52.79 25.75 50.85 26.31 48.91 27 47.98 27.38 47.16 27.81 46.29 28.38 45.48 28.94 44.6 29.56 43.85 30.13 43.17 30.81 42.48 31.56 41.73 32.31 41.17 33.06 41.17 33.06 40.48 34.25 39.73 35.31 39.29 36.56 38.86 37.69 38.54 38.94 38.29 40.25 38.23 41.56 38.23 42.81 38.23 42.81 35.98 43.38 33.67 43.88 31.3 44.19 28.92 44.25 28.92 44.25 27.49 46 26.05 47.56 24.49 48.94 22.93 50.25 22.05 50.81 21.18 51.31 20.3 51.88 19.3 52.31 17.18 53.25 14.99 54 14.99 54 14.8 54 14.68 53.88 14.55 53.81 14.55 53.63 14.55 53.63 17.05 42.38 17.05 42.38 15.8 42 14.68 41.56 13.56 41 12.43 40.5 11.43 39.88 10.43 39.31 9.43 38.63 8.5 37.94 7.62 37.25 6.81 36.56 5.93 35.75 5.25 35 4.5 34.13 3.87 33.38 3.25 32.44 2.75 31.63 2.19 30.69 1.75 29.81 1.31 28.81 0.94 27.94 0.62 27 0.44 26 0.19 25 0.13 24 0 23 0 22 0 20.88 0.19 19.88 0.31 18.81 0.56 17.81 0.87 16.75 1.19 15.69 1.19 15.69 1.62 14.69 2.19 13.56 2.75 12.56 3.31 11.69 4.06 10.75 4.75 9.81 5.5 8.94 6.37 8.13 7.25 7.38 8.18 6.56 9.18 5.81 10.18 5.13 11.24 4.5 12.37 3.88 13.49 3.25 14.68 2.75 15.87 2.25 17.12 1.81 18.37 1.44 19.61 1.13 20.86 0.81 22.18 0.5 23.61 0.31 24.93 0.19 26.3 0.13 27.67 0 29.05 0 30.42 0.13 31.8 0.25 33.23 0.44 34.61 0.63 35.98 0.94 35.98 0.94 35.98 0.94"/></g></g></svg>