<svg xmlns="http://www.w3.org/2000/svg" viewBox="0 0 95.6 73.27"><defs><style>.cls-1{fill:#444;fill-rule:evenodd;opacity:.6}</style></defs><title>legal</title><g id="Layer_2" data-name="Layer 2"><g id="Layer_1-2" data-name="Layer 1"><rect class="cls-1" y="61.82" width="47.33" height="11.45" rx="1.73" ry="1.73"/><rect class="cls-1" x="19.35" y="14.77" width="28.76" height="27.69" transform="translate(-7.82 43.79) rotate(-60.37)"/><path class="cls-1" d="M30,7.72,53.61,21.16A4.13,4.13,0,0,0,57.69,14L34.05.54A4.13,4.13,0,0,0,30,7.72Z"/><path class="cls-1" d="M93.52,57.87,49.42,32.79,45.34,40,89.43,65.05a4.13,4.13,0,0,0,5.63-1.55h0A4.13,4.13,0,0,0,93.52,57.87Z"/><path class="cls-1" d="M9.8,43.18,33.44,56.62a4.12,4.12,0,0,0,5.63-1.55h0a4.12,4.12,0,0,0-1.55-5.62L13.89,36a4.13,4.13,0,0,0-5.63,1.55h0A4.13,4.13,0,0,0,9.8,43.18Z"/></g></g></svg>