<svg xmlns="http://www.w3.org/2000/svg" viewBox="0 0 55.97 76"><defs><style>.cls-1{fill:#444;fill-rule:evenodd;opacity:.6}</style></defs><title>marketing_1</title><g id="Layer_2" data-name="Layer 2"><g id="Layer_1-2" data-name="Layer 1"><path class="cls-1" d="M50.16,8.31H43.48v3.88h7.18l.38.12.43.25.38.31h0l.31.38.19.44.06.5.06.5V69.63h0l-.06.5-.06.5-.19.43-.31.32h0l-.38.31-.43.25-.38.19-.5.06H5.87l-.5-.06-.44-.19-.37-.25-.38-.31h0l-.31-.32-.18-.43-.19-.5V14.69h0v-.5l.19-.5.18-.44.31-.38h0l.38-.31.37-.25.44-.12h7.19V8.31H5.18l-.5.13-.56.12-.5.25-.56.25-.5.31-.44.38-.43.44h0l-.38.43-.31.5-.31.57-.25.56-.19.56-.13.63L0,14.06V69.63H0v.62l.12.69.13.56.19.63.25.56.31.44.31.56.38.44h0l.43.37.44.44.5.31.56.25.5.19.56.19.5.06.69.06H50.16l.56-.06.63-.06.56-.19.5-.19.5-.25.56-.31.44-.44.44-.37h0l.31-.44.31-.56.32-.44.25-.56.18-.63.13-.56.12-.69V14.69h0v-.63l-.12-.62-.13-.63-.18-.56-.25-.56L55,11.12l-.31-.5-.31-.43h0l-.44-.44-.44-.38-.56-.31-.5-.25-.5-.25-.56-.12-.63-.13ZM41.1,6.75h-7L34.05,6,34,5.37l-.12-.62-.25-.63-.19-.56L33.11,3l-.38-.56-.43-.5-.44-.38-.44-.44-.5-.31L30.42.5,29.86.37,29.24.12,28.61,0H27.36L26.8.12l-.63.25L25.61.5l-.5.31-.5.31-.56.44-.44.38-.31.5L22.93,3l-.32.56-.31.56-.12.63-.13.62L21.86,6v.75h-7v9.56H41.1V6.75Zm-10.49,0H25.36l.13-.56.12-.57.19-.5.31-.43.44-.38L27,4.12l.5-.25h1.06l.5.25.44.19.37.38.31.43.25.5.13.57.06.56Z"/><path class="cls-1" d="M11,49.19V28.06h0v-.31l.19-.25.13-.25.18-.13h0l.32-.12h.31l.19.12.18.13L23.86,37.37h0l.25.19.25.06h.31l.32-.18,5.49-3.38h0L30.8,34h.37l.25.06.31.31,4.94,7.26h0l.31.25.25.18h.31l.38-.06,4.75-2.69h0l.18-.06h.44l.31.13h0l.13.18.12.25.07.25.06.19v8.94Zm33,5.5H11v2.56H44V54.69Zm0,6.75H11V64H44V61.44Z"/></g></g></svg>