<svg xmlns="http://www.w3.org/2000/svg" viewBox="0 0 67.97 54"><defs><style>.cls-1{fill:#444;fill-rule:evenodd;opacity:.4}</style></defs><title>photogrpahy</title><g id="Layer_2" data-name="Layer 2"><g id="Layer_1-2" data-name="Layer 1"><path class="cls-1" d="M60,35.13h0v-2l-.31-1.94-.5-1.81-.63-1.76L57.72,26l-.81-1.5-1.19-1.44-1.31-1.5L53.1,20.44l-1.44-1.13-1.5-1-1.81-.81L46.73,17l-1.94-.5L43,16.19,41,16h0L39,16.19l-1.81.31L35.3,17l-1.63.5L32,18.31l-1.62,1-1.44,1.13-1.31,1.12-1.31,1.5-1,1.44-1,1.5-.81,1.62-.63,1.76-.5,1.81L22,33.13v2h0v1.93l.37,1.82.5,1.75.63,1.81.81,1.62,1,1.63,1,1.5,1.31,1.31,1.31,1.31,1.44.94,1.62,1,1.69.81,1.63.63,1.93.5L39,54H43l1.81-.31,1.94-.5,1.62-.63,1.81-.81,1.5-1,1.44-.94,1.31-1.31,1.31-1.31,1.19-1.5.81-1.63.81-1.62.63-1.81.5-1.75L60,37.06V35.13ZM41,48.31H39.73l-1.31-.12-1.31-.38-1.31-.5-1.19-.62-1.13-.63-1-.68-1-.94-.81-.88-.81-1.12-.62-.94-.5-1.31L28.24,39l-.32-1.25-.18-1.31V35.13h0v-1.5l.18-1.32.32-1.25.5-1.18.5-1.13.62-1.13.81-1,.81-1,1-.81,1-.81,1.13-.63,1.19-.5,1.31-.5,1.31-.31,1.31-.19L41,21.75h0l1.31.12,1.31.19,1.32.31,1.31.5,1.18.5,1.13.63,1,.81.94.81.87,1,.81,1,.63,1.13.5,1.13.5,1.18.31,1.25.19,1.32.12,1.5h0l-.12,1.31-.19,1.31L53.79,39l-.5,1.19-.5,1.31-.63.94-.81,1.12-.87.88-.94.94-1,.68-1.13.63-1.18.62-1.31.5-1.32.38-1.31.12Z"/><path class="cls-1" d="M61.6,7.06H53.54L51.91,2.19h0l-.5-.82L50.6.5,49.79.19l-1-.19H33.05l-1,.19L31.23.5l-.81.87-.5.82L28.24,7.06h-8l-.19-.69-.31-.5-.69-.81-.93-.5-.5-.19-.5-.18H11.49l-.62.18-.5.19-1,.5-.62.81-.38.5v.69H5.12L4,7.56l-1.19.5-1,.81-.62,1-.69,1L.19,12.25,0,13.37V44.5H0l.19,1.38L.5,47l.69,1.19.62,1,1,.69L4,50.5l1.12.38L6.44,51h21L26,49.5l-1.5-1.62L23.36,46l-1.18-2-.82-2-.62-2.31-.38-2.19-.12-2.37h0L20.36,33l.38-2.19.44-2,.68-1.87,1-1.82,1-1.87L25,21.75l1.31-1.5,1.5-1.31,1.62-1.38,1.63-1,1.81-.81,2-.69,1.93-.5,2-.31,2.13-.19h0l2.12.19,2,.31,1.94.5,2,.69,1.81.81,1.62,1L54,18.94l1.5,1.31,1.31,1.5L58,23.25l1.19,1.87L60,26.94l.63,1.87.5,2L61.41,33l.19,2.13h0l-.19,2.37-.31,2.19L60.47,42l-.87,2-1.13,2-1.12,1.88-1.5,1.62L54.35,51H61.6l1.31-.12L64,50.5l1.19-.62,1-.69.62-1L67.53,47l.31-1.12L68,44.5V13.37h0l-.13-1.12-.31-1.38-.69-1-.62-1-1-.81L64,7.56l-1.12-.5ZM45.85,9.25H35.48L35,9.06l-.81-.69-.5-.62-.12-.5V6.69h0v-.5l.12-.5.5-.82.81-.5.5-.18H46.35l.44.18.87.5.44.82.19.5v.5h0v.56l-.19.5-.44.62-.87.69-.44.19Z"/></g></g></svg>