<svg xmlns="http://www.w3.org/2000/svg" viewBox="0 0 81.69 94.76"><defs><style>.cls-1{fill:#444;fill-rule:evenodd;opacity:.6}</style></defs><title>political</title><g id="Layer_2" data-name="Layer 2"><g id="Layer_1-2" data-name="Layer 1"><path class="cls-1" d="M67.93,57.34a13.69,13.69,0,0,0,1.2-4.68v-3.9c0-5.8-4.08-7.68-9.84-9.37a31,31,0,0,1-6.07-2.61,2.8,2.8,0,0,0-3.29.29L44.75,53.44,43,43.83a1.13,1.13,0,0,0-.17-.42.71.71,0,0,0,.38-.68l.67-4.33c0-.4-.22-.73-.51-.73H38.27c-.28,0-.51.33-.51.73l.68,4.33a.69.69,0,0,0,.38.68,1,1,0,0,0-.17.42l-1.72,9.61-5-15.92a2.82,2.82,0,0,0-3.56-.67,30,30,0,0,1-5.95,2.48c-5.68,1.6-9.83,3.65-9.83,9.43v3.9a13.69,13.69,0,0,0,1.2,4.68ZM29.19,21.89h0c1.68,7.24,4.33,12.47,11.61,12.47s9.63-5.53,11.47-12.61a1.2,1.2,0,0,0,.45.15c1.3.16,2.59-1.62,2.89-4s-.53-4.35-1.82-4.52C53.9,6.33,49.66,0,40.84,0S28.06,6.3,28,13.44c-1.21.29-2,2.24-1.69,4.49S27.89,22.05,29.19,21.89ZM47.32,84.06l-4-.58a1.28,1.28,0,0,1-.83-.6l-1.8-3.64c-.14-.29-.37-.29-.5,0l-1.81,3.64a1.23,1.23,0,0,1-.82.6l-4,.58c-.31,0-.38.27-.16.49l2.92,2.84a1.2,1.2,0,0,1,.31,1l-.68,4c-.06.31.13.44.41.29l3.6-1.89a1.21,1.21,0,0,1,1,0l3.6,1.89c.28.15.46,0,.41-.29l-.69-4a1.2,1.2,0,0,1,.32-1l2.91-2.84C47.7,84.33,47.62,84.11,47.32,84.06ZM78.71,59.68H3a3,3,0,0,0-3,3v6.14a3,3,0,0,0,3,3H9.5l3.84,23H30.68a12.56,12.56,0,1,1,19.45,0H67.48l3.84-23h7.39a3,3,0,0,0,3-3V62.65A3,3,0,0,0,78.71,59.68Z"/></g></g></svg>