<svg xmlns="http://www.w3.org/2000/svg" viewBox="0 0 79.96 61"><defs><style>.cls-1{fill:#444;fill-rule:evenodd;opacity:.6}</style></defs><title>retail_1</title><g id="Layer_2" data-name="Layer 2"><g id="Layer_1-2" data-name="Layer 1"><polygon class="cls-1" points="62.84 1.56 62.84 1.56 61.84 0.94 60.72 0.38 59.66 0.13 58.35 0 51.35 0 51.35 0 51.04 0 50.73 0.13 50.48 0.31 50.16 0.5 49.85 1 49.54 1.69 49.54 1.69 49.35 2.5 49.1 3.31 48.79 4.13 48.48 4.81 47.98 5.44 47.41 6.06 46.91 6.75 46.35 7.25 45.6 7.81 44.98 8.25 44.23 8.63 43.42 9 42.6 9.19 41.73 9.38 40.92 9.56 39.98 9.56 39.98 9.56 39.1 9.56 38.29 9.38 37.42 9.19 36.61 9 35.86 8.63 35.05 8.25 34.42 7.81 33.8 7.25 33.11 6.75 32.61 6.06 32.05 5.44 31.55 4.81 31.23 4.13 30.92 3.31 30.67 2.5 30.48 1.69 30.48 1.69 30.3 1 29.86 0.5 29.67 0.31 29.3 0.13 28.99 0 28.61 0 21.68 0 21.68 0 20.49 0.13 19.3 0.38 18.18 0.94 17.18 1.56 0.69 14.94 0.69 14.94 0.38 15.13 0.19 15.44 0.13 15.69 0 16.06 0 16.31 0.13 16.69 0.19 16.94 0.38 17.25 8.18 26.63 8.18 26.63 8.37 26.81 8.62 27 8.93 27.06 9.31 27.19 9.56 27.19 9.93 27.06 10.18 27 10.49 26.81 18.49 20.38 18.49 20.38 18.61 20.31 18.93 20.31 18.99 20.5 19.11 20.69 19.11 59.38 19.11 59.38 19.18 59.69 19.3 60.06 19.36 60.31 19.55 60.5 19.86 60.69 20.11 60.88 20.49 60.94 20.74 61 59.28 61 59.28 61 59.66 60.94 59.91 60.88 60.16 60.69 60.47 60.5 60.66 60.31 60.84 60.06 60.91 59.69 60.91 59.38 60.91 20.69 60.91 20.69 61.03 20.5 61.09 20.31 61.34 20.31 61.53 20.38 69.53 26.81 69.53 26.81 69.84 27 70.15 27.06 70.47 27.19 70.72 27.19 71.09 27.06 71.34 27 71.65 26.81 71.9 26.63 79.65 17.25 79.65 17.25 79.84 16.94 79.96 16.69 79.96 16.31 79.96 16.06 79.96 15.69 79.84 15.44 79.65 15.13 79.46 14.94 62.84 1.56 62.84 1.56"/></g></g></svg>