<?xml version="1.0" encoding="utf-8"?>
<!-- Generator: Adobe Illustrator 22.0.1, SVG Export Plug-In . SVG Version: 6.00 Build 0)  -->
<svg version="1.1" id="Layer_1" xmlns="http://www.w3.org/2000/svg" xmlns:xlink="http://www.w3.org/1999/xlink" x="0px" y="0px"
	 viewBox="0 0 76 67" style="enable-background:new 0 0 76 67;" xml:space="preserve">
<style type="text/css">
	.st0{opacity:0.4;fill:#444444;enable-background:new    ;}
</style>
<title>shopping</title>
<g>
	<polygon class="st0" points="44.8,60.5 44.6,60.1 44.4,59.7 44.2,59.2 43.8,58.9 43.5,58.5 43.2,58.2 42.8,57.9 42.3,57.6 42,57.4
		41.5,57.2 41,57.1 40.5,57.1 40,57 39.5,57.1 39,57.1 38.5,57.2 38,57.4 37.6,57.6 37.2,57.9 36.8,58.2 36.5,58.5 36.2,58.9
		35.9,59.2 35.6,59.7 35.4,60.1 35.2,60.5 35.1,61 35,61.5 35,62 35,62.5 35.1,63 35.2,63.5 35.4,64 35.6,64.4 35.9,64.8 36.2,65.2
		36.5,65.6 36.8,65.9 37.2,66.2 37.6,66.4 38,66.6 38.5,66.8 39,66.9 39.5,67 40,67 40.5,67 41,66.9 41.5,66.8 42,66.6 42.3,66.4
		42.8,66.2 43.2,65.9 43.5,65.6 43.8,65.2 44.2,64.8 44.4,64.4 44.6,64 44.8,63.5 44.9,63 45,62.5 45,62 45,61.5 44.9,61 	"/>
	<polygon class="st0" points="59.8,60.5 59.5,60.1 59.3,59.7 59.1,59.2 58.7,58.9 58.3,58.5 58,58.2 57.6,57.9 57.1,57.6 56.7,57.4
		56.1,57.2 55.6,57.1 55.1,57.1 54.5,57 53.9,57.1 53.4,57.1 52.8,57.2 52.3,57.4 51.9,57.6 51.5,57.9 51,58.2 50.6,58.5 50.3,58.9
		50,59.2 49.7,59.7 49.5,60.1 49.3,60.5 49.1,61 49,61.5 49,62 49,62.5 49.1,63 49.3,63.5 49.5,64 49.7,64.4 50,64.8 50.3,65.2
		50.6,65.6 51,65.9 51.5,66.2 51.9,66.4 52.3,66.6 52.8,66.8 53.4,66.9 53.9,67 54.5,67 55.1,67 55.6,66.9 56.1,66.8 56.7,66.6
		57.1,66.4 57.6,66.2 58,65.9 58.3,65.6 58.7,65.2 59.1,64.8 59.3,64.4 59.5,64 59.8,63.5 59.9,63 60,62.5 60,62 60,61.5 59.9,61
		"/>
	<path class="st0" d="M75.9,11.6l-0.1-0.2l-0.1-0.2l-0.1-0.2l-0.1-0.2l-0.2-0.2l-0.1-0.2l-0.2-0.1l-0.2-0.1L74.5,10l-0.2-0.1L74,9.8
		l-0.2-0.1H21.9L19,2.2l-0.1-0.2l-0.1-0.2l-0.2-0.2l-0.1-0.2l-0.1-0.2l-0.2-0.2L18,0.7l-0.2-0.1l-0.2-0.1l-0.2-0.2l-0.2-0.1L17,0.1
		l-0.2-0.1L16.5,0H2.4L2.1,0.1L1.8,0.1L1.6,0.2L1.4,0.3L1.2,0.4L0.9,0.6L0.8,0.8L0.6,0.9L0.4,1.1L0.4,1.4L0.2,1.6L0.1,1.8L0.1,2.1
		L0,2.3v0.2v0.2l0.1,0.2l0.1,0.2l0.1,0.2l0.1,0.2L0.4,4l0.2,0.2l0.2,0.2l0.1,0.2l0.2,0.1l0.2,0.2l0.2,0.1L1.8,5l0.2,0.1l0.3,0.1
		h12.3l12.9,35.2l0.1,0.1l4.6,12.4l0.1,0.2l0.1,0.2l0.1,0.2l0.2,0.2l0.1,0.2l0.2,0.2l0.2,0.1l0.2,0.2l0.2,0.1l0.2,0.1l0.2,0.1
		l0.2,0.1l0.2,0.1H61l0.2-0.1l0.2-0.1l0.2-0.1l0.2-0.1l0.2-0.2l0.2-0.1l0.2-0.2l0.1-0.2l0.1-0.2l0.1-0.2l0.1-0.2V53l0.1-0.2v-0.3
		v-0.2L63,51.9v-0.2l-0.1-0.2l-0.1-0.2L62.7,51l-0.1-0.2l-0.2-0.2l-0.2-0.1L62,50.3l-0.2-0.1l-0.2-0.1L61.3,50L61,49.9l-0.2-0.1
		H36.5l-2.7-7.4h29.2l0.4-0.1h0.4l0.4-0.2l0.4-0.1l0.1-0.1l0.2-0.1l0.1-0.1l0.1-0.1l0.1-0.1l0.1-0.2l0.1-0.2l0.1-0.2L75.8,13
		l0.1-0.2v-0.9L75.9,11.6z M45,23v14.4h-6L36.3,23H45z M35.9,21l-1.1-6.1H45V21H35.9z M47,23h9.7L54,37.4h-7V23z M47,21v-6.1h11.2
		L57,21H47z M32.4,14.9l1.2,6.1H26l-2.2-6.1H32.4z M31.9,37.4L26.7,23H34l2.7,14.4H31.9z M61.4,37.4L61.4,37.4h-5L59,23h7.7
		L61.4,37.4z M67,22.4V21h-7.6l1.1-6.1h9.2L67,22.4z"/>
</g>
</svg>
