<svg xmlns="http://www.w3.org/2000/svg" viewBox="0 0 75.96 67"><defs><style>.cls-1{fill:#44736d;fill-rule:evenodd;opacity:1}</style></defs><title>shopping</title><g id="Layer_2" data-name="Layer 2"><g id="Layer_1-2" data-name="Layer 1"><polygon class="cls-1" points="44.98 62 44.98 62 44.98 62.5 44.91 63 44.79 63.5 44.6 64 44.41 64.38 44.16 64.81 43.85 65.19 43.54 65.56 43.17 65.88 42.79 66.19 42.35 66.44 41.98 66.63 41.48 66.81 40.98 66.94 40.48 67 39.98 67 39.98 67 39.48 67 38.98 66.94 38.48 66.81 38.04 66.63 37.61 66.44 37.23 66.19 36.79 65.88 36.48 65.56 36.17 65.19 35.86 64.81 35.61 64.38 35.36 64 35.23 63.5 35.11 63 35.04 62.5 34.98 62 34.98 62 35.04 61.5 35.11 61 35.23 60.5 35.36 60.06 35.61 59.69 35.86 59.25 36.17 58.88 36.48 58.5 36.79 58.19 37.23 57.88 37.61 57.63 38.04 57.38 38.48 57.25 38.98 57.13 39.48 57.06 39.98 57 39.98 57 40.48 57.06 40.98 57.13 41.48 57.25 41.98 57.38 42.35 57.63 42.79 57.88 43.17 58.19 43.54 58.5 43.85 58.88 44.16 59.25 44.41 59.69 44.6 60.06 44.79 60.5 44.91 61 44.98 61.5 44.98 62 44.98 62 44.98 62"/><polygon class="cls-1" points="59.97 62 59.97 62 59.97 62.5 59.91 63 59.78 63.5 59.53 64 59.34 64.38 59.1 64.81 58.72 65.19 58.35 65.56 57.97 65.88 57.6 66.19 57.1 66.44 56.66 66.63 56.1 66.81 55.6 66.94 55.1 67 54.54 67 54.54 67 53.91 67 53.41 66.94 52.85 66.81 52.35 66.63 51.91 66.44 51.47 66.19 51.04 65.88 50.6 65.56 50.29 65.19 49.98 64.81 49.73 64.38 49.48 64 49.29 63.5 49.1 63 49.04 62.5 48.98 62 48.98 62 49.04 61.5 49.1 61 49.29 60.5 49.48 60.06 49.73 59.69 49.98 59.25 50.29 58.88 50.6 58.5 51.04 58.19 51.47 57.88 51.91 57.63 52.35 57.38 52.85 57.25 53.41 57.13 53.91 57.06 54.54 57 54.54 57 55.1 57.06 55.6 57.13 56.1 57.25 56.66 57.38 57.1 57.63 57.6 57.88 57.97 58.19 58.35 58.5 58.72 58.88 59.1 59.25 59.34 59.69 59.53 60.06 59.78 60.5 59.91 61 59.97 61.5 59.97 62 59.97 62 59.97 62"/><path class="cls-1" d="M74.21,9.87h0L74,9.81l-.25-.06H21.86L19.05,2.19h0l-.12-.25-.06-.25-.19-.25-.13-.19-.12-.19L18.24.81,18.05.69,17.87.56,17.62.44,17.43.25,17.24.19,17,.12,16.8.06,16.55,0H2.37L2.06.06,1.81.12,1.62.25,1.37.31,1.19.44.94.62.81.75.62.94l-.18.18-.07.25-.12.19-.13.25-.06.25L0,2.31v.25H0v.25l.06.25.06.25.13.25.12.25L.44,4l.18.19.19.18.13.19.25.13.18.18.25.07L1.81,5l.25.06.31.06H14.68L27.55,40.31h0l.06.13,4.56,12.43h0l.13.25.06.25.12.19.19.25.13.19.18.19.19.12.19.19.19.12.18.13.25.06.19.06.25.13H61l.25-.13.25-.06.25-.06.19-.13.19-.18.18-.13.19-.25.13-.19.12-.18.13-.25.12-.25V53l.06-.25v-.31h0v-.25L63,51.94v-.25l-.12-.25-.13-.19L62.66,51l-.13-.19-.19-.19-.18-.12L62,50.31l-.19-.12-.25-.07L61.28,50,61,49.94l-.25-.07H36.54L33.86,42.5H63.09l.44-.06h.38l.37-.19.38-.13.12-.12.19-.13.12-.12.13-.13.12-.12.06-.19.13-.19.06-.18L75.84,13h0l.12-.25v-.94l-.06-.19-.06-.25-.13-.18-.12-.25-.13-.19-.19-.19-.12-.19-.25-.12-.19-.13L74.46,10l-.25-.13Zm-12.8,27.5H31.92l-8.18-22.5h46l-8.31,22.5Z"/><polygon class="cls-1" points="24.99 21 24.99 23 66.97 23 66.97 21 24.99 21 24.99 21"/><polygon class="cls-1" points="44.98 13 44.98 38 46.98 38 46.98 13 44.98 13 44.98 13"/><polygon class="cls-1" points="56.28 38 53.97 37.56 58.72 12 60.97 12.44 56.28 38 56.28 38"/><polygon class="cls-1" points="36.79 38 31.98 12.5 34.23 12 38.98 37.56 36.79 38 36.79 38"/></g></g></svg>