<svg xmlns="http://www.w3.org/2000/svg" viewBox="0 0 65.97 67"><defs><style>.cls-1{fill:#444;fill-rule:evenodd;opacity:.6}</style></defs><title>sports-fitness</title><g id="Layer_2" data-name="Layer 2"><g id="Layer_1-2" data-name="Layer 1"><polygon class="cls-1" points="21.59 28.21 21.59 28.21 23.1 27.16 24.61 26.12 25.91 24.86 26.99 23.81 26.99 23.81 20.29 22.14 14.03 20.67 8.2 19.84 3.45 19 3.45 19 1.94 22.35 0.86 25.91 0.22 29.46 0 33.23 0 33.23 0.22 36.58 0.65 39.93 1.51 42.86 2.59 46 2.59 46 4.1 43.07 5.83 40.35 7.77 38.05 10.15 35.74 12.74 33.65 15.54 31.77 18.57 29.88 21.59 28.21 21.59 28.21 21.59 28.21 21.59 28.21"/><polygon class="cls-1" points="30.76 15.38 30.76 15.38 30.98 13.19 30.98 11.21 30.76 9.01 30.54 7.03 29.88 5.05 29.44 3.3 27.9 0 27.9 0 24.38 0.66 21.07 1.76 17.77 3.3 14.69 5.05 12.04 7.03 9.4 9.45 6.98 12.09 5 14.73 5 14.73 10.06 15.6 16.01 16.7 22.39 18.24 29.22 20 29.22 20 30.1 17.8 30.76 15.38 30.76 15.38 30.76 15.38 30.76 15.38"/><polygon class="cls-1" points="34.61 16.04 34.61 16.04 33.95 18.57 33.08 20.89 33.08 20.89 39.85 23 39.85 23 41.82 17.51 43.35 12.03 45.98 2.53 45.98 2.53 43.13 1.48 39.85 0.63 36.58 0.21 33.3 0 33.3 0 31.98 0.21 31.98 0.21 33.51 3.59 33.95 5.49 34.39 7.6 34.83 9.71 34.83 11.82 34.83 13.93 34.61 16.04 34.61 16.04 34.61 16.04 34.61 16.04"/><polygon class="cls-1" points="56.58 28.89 56.58 28.89 55.97 29.91 55.97 29.91 60.87 32.35 65.97 35 65.97 35 65.97 33.17 65.97 33.17 65.97 30.72 65.76 28.48 65.15 26.24 64.74 24 64.74 24 62.09 24.61 59.85 25.83 58.01 27.26 56.58 28.89 56.58 28.89 56.58 28.89 56.58 28.89"/><polygon class="cls-1" points="52.04 28 52.04 28 53.14 26.29 53.14 26.29 54.91 24.36 56.01 23.29 57.12 22.43 58.67 21.57 60.21 20.93 61.98 20.29 63.97 19.64 63.97 19.64 62.64 17.29 61.32 14.93 59.77 12.79 58 10.64 56.01 8.71 54.03 7 51.82 5.5 49.39 4 49.39 4 46.73 13.64 44.97 19 42.98 24.57 42.98 24.57 47.62 26.07 52.04 28 52.04 28 52.04 28 52.04 28"/><polygon class="cls-1" points="54.41 34 54.41 34 53.97 35.68 53.97 37.36 53.97 39.25 53.97 41.14 54.41 43.24 54.84 45.34 55.5 47.44 56.37 49.54 56.37 49.54 58.33 55 58.33 55 59.86 53.32 60.95 51.64 62.26 49.96 63.13 48.07 64.22 45.97 64.88 44.08 65.53 41.98 65.97 39.88 65.97 39.88 60.3 36.73 54.41 34 54.41 34 54.41 34 54.41 34"/><polygon class="cls-1" points="30.65 25 30.65 25 29.14 26.93 27.42 28.64 25.48 30.36 23.11 31.86 23.11 31.86 23.11 31.86 19.44 34 16.21 36.14 13.19 38.5 10.6 40.64 8.45 43.21 6.94 46 6.08 47.28 5.64 48.78 5.21 50.28 5 52 5 52 6.29 53.93 7.8 55.64 9.31 57.36 11.03 58.86 12.97 60.36 14.91 61.64 16.85 62.93 19.01 64 19.01 64 22.03 59.5 24.83 54.78 27.63 50.28 30 45.57 32.16 41.07 34.32 36.36 37.98 27.36 37.98 27.36 30.65 25 30.65 25 30.65 25 30.65 25"/><polygon class="cls-1" points="50.47 31.7 50.47 31.7 46.17 29.74 41.88 28 41.88 28 38.23 37.37 36.08 41.94 33.94 46.74 31.57 51.31 28.78 56.1 25.99 60.9 22.99 65.47 22.99 65.47 25.35 66.13 27.93 66.56 30.5 66.78 33.08 67 33.08 67 36.08 66.78 39.09 66.35 42.09 65.69 44.88 64.6 47.67 63.51 50.25 61.99 52.61 60.46 54.97 58.5 54.97 58.5 53.9 55.02 52.4 51.09 52.4 51.09 51.54 48.48 50.68 45.87 50.25 43.25 49.82 40.85 49.82 38.46 49.82 36.06 50.04 33.88 50.47 31.7 50.47 31.7 50.47 31.7 50.47 31.7"/></g></g></svg>