<svg xmlns="http://www.w3.org/2000/svg" viewBox="0 0 42 70.96"><defs><style>.cls-1{fill:#444;fill-rule:evenodd;opacity:.6}</style></defs><title>technology</title><g id="Layer_2" data-name="Layer 2"><g id="Layer_1-2" data-name="Layer 1"><polygon class="cls-1" points="0 19.93 0 19.93 0 18.87 0.06 17.87 0.19 16.93 0.38 15.93 0.63 14.93 0.88 13.99 1.19 13.06 1.63 12.18 2 11.31 2.5 10.49 3 9.62 3.5 8.81 4.13 8 4.75 7.31 5.44 6.56 6.13 5.87 6.81 5.25 7.56 4.62 8.44 4 9.25 3.44 10.06 2.94 10.94 2.44 11.88 2 12.81 1.56 13.69 1.25 14.69 0.94 15.75 0.63 16.75 0.44 17.75 0.31 18.81 0.13 19.88 0.06 21 0 21 0 22.06 0.06 23.12 0.13 24.19 0.31 25.19 0.44 26.25 0.63 27.19 0.94 28.19 1.25 29.12 1.56 30.06 2 30.94 2.44 31.81 2.94 32.69 3.44 33.5 4 34.31 4.62 35.06 5.25 35.81 5.87 36.5 6.56 37.19 7.31 37.81 8 38.37 8.81 38.94 9.62 39.44 10.49 39.94 11.31 40.31 12.18 40.69 13.06 41.06 13.99 41.31 14.93 41.56 15.93 41.69 16.93 41.87 17.87 42 18.87 42 19.93 42 19.93 41.94 20.93 41.87 21.99 41.69 22.99 41.5 23.99 41.31 24.93 41 25.93 40.62 26.86 40.25 27.8 40.25 27.8 40.25 27.8 39.81 28.67 39.31 29.61 38.75 30.48 38.19 31.36 38.19 31.36 37.56 32.42 36.87 33.67 35.62 36.3 34.37 39.11 33.31 41.85 32.37 44.48 31.62 46.79 31.31 47.79 31.12 48.6 31 49.35 30.94 49.85 30.94 49.85 30.87 50.29 30.69 50.73 30.44 51.1 30.12 51.35 29.69 51.66 29.19 51.79 28.69 51.98 28.12 51.98 13.81 51.98 13.81 51.98 13.25 51.98 12.75 51.79 12.25 51.66 11.81 51.35 11.44 51.1 11.19 50.73 11.06 50.29 11 49.85 11 49.85 10.94 49.35 10.81 48.6 10.56 47.79 10.31 46.79 9.56 44.48 8.63 41.85 7.5 39.11 6.25 36.3 5 33.67 4.38 32.42 3.75 31.36 3.75 31.36 3.19 30.48 2.63 29.61 2.13 28.67 1.69 27.8 1.69 27.8 1.69 27.8 1.69 27.8 1.25 26.86 0.94 25.93 0.63 24.93 0.38 23.99 0.25 22.99 0.06 21.99 0 20.93 0 19.93 0 19.93 0 19.93"/><polygon class="cls-1" points="11 56.97 11 56.97 11 56.6 11.19 56.22 11.38 55.91 11.69 55.6 12.06 55.41 12.44 55.16 12.88 55.03 13.38 54.97 28.56 54.97 28.56 54.97 29 55.03 29.5 55.16 29.87 55.41 30.25 55.6 30.56 55.91 30.75 56.22 30.94 56.6 31 56.97 31 56.97 31 56.97 30.94 57.41 30.75 57.78 30.56 58.16 30.25 58.47 29.87 58.66 29.5 58.91 29 58.97 28.56 58.97 13.38 58.97 13.38 58.97 12.88 58.97 12.44 58.91 12.06 58.66 11.69 58.47 11.38 58.16 11.19 57.78 11 57.41 11 56.97 11 56.97 11 56.97"/><polygon class="cls-1" points="11 62.97 11 62.97 11 62.59 11.19 62.16 11.38 61.84 11.69 61.53 12.06 61.34 12.44 61.09 12.88 60.97 13.38 60.97 28.56 60.97 28.56 60.97 29 60.97 29.5 61.09 29.87 61.34 30.25 61.53 30.56 61.84 30.75 62.16 30.94 62.59 31 62.97 31 62.97 31 62.97 30.94 63.41 30.75 63.78 30.56 64.09 30.25 64.41 29.87 64.59 29.5 64.84 29 64.97 28.56 64.97 13.38 64.97 13.38 64.97 12.88 64.97 12.44 64.84 12.06 64.59 11.69 64.41 11.38 64.09 11.19 63.78 11 63.41 11 62.97 11 62.97 11 62.97"/><polygon class="cls-1" points="16 69.47 16 69.47 16 69.78 16.13 70.09 16.25 70.34 16.56 70.59 16.81 70.72 17.13 70.9 17.44 70.97 17.81 70.97 25.19 70.97 25.19 70.97 25.5 70.97 25.87 70.9 26.19 70.72 26.44 70.59 26.69 70.34 26.81 70.09 27 69.78 27 69.47 27 69.47 27 69.47 27 69.22 26.81 68.97 26.69 68.65 26.44 68.4 26.19 68.28 25.87 68.15 25.5 68.03 25.19 67.97 17.81 67.97 17.81 67.97 17.44 68.03 17.13 68.15 16.81 68.28 16.56 68.4 16.25 68.65 16.13 68.97 16 69.22 16 69.47 16 69.47 16 69.47"/></g></g></svg>