<svg xmlns="http://www.w3.org/2000/svg" viewBox="0 0 73.96 62"><defs><style>.cls-1{fill:#444;fill-rule:evenodd;opacity:.4}</style></defs><title>travel</title><g id="Layer_2" data-name="Layer 2"><g id="Layer_1-2" data-name="Layer 1"><polygon class="cls-1" points="73.59 1.38 73.59 1.38 73.59 1.38 73.59 1.38 73.46 1.25 73.4 1.13 73.28 1 73.15 0.88 73.03 0.81 72.9 0.69 72.78 0.63 72.65 0.5 72.53 0.44 72.4 0.38 72.21 0.31 72.09 0.25 71.78 0.19 71.4 0.13 71.03 0.06 70.65 0 70.28 0 69.84 0.06 69.4 0.06 68.97 0.13 68.53 0.19 68.09 0.25 67.59 0.38 67.09 0.5 66.59 0.63 66.09 0.81 65.59 0.94 65.09 1.13 64.53 1.31 64.03 1.5 63.47 1.69 62.91 1.94 61.84 2.38 60.72 2.88 59.66 3.38 58.6 3.88 57.53 4.44 56.47 4.94 55.47 5.5 54.53 6 53.6 6.56 52.72 7.06 51.91 7.5 50.54 8.31 49.48 9 48.54 9.56 29.42 5.5 29.42 5.5 29.86 5 30.3 4.56 30.42 4.38 30.61 4.19 30.73 4 30.86 3.81 30.92 3.63 31.05 3.5 31.11 3.31 31.11 3.19 31.11 3.06 31.11 2.94 31.11 2.88 31.05 2.75 31.05 2.75 31.05 2.69 30.98 2.63 30.86 2.63 30.8 2.56 30.73 2.56 30.61 2.56 30.48 2.5 30.36 2.5 30.11 2.56 29.8 2.56 29.42 2.63 29.05 2.75 28.67 2.88 28.23 3 27.74 3.19 27.24 3.38 26.74 3.63 26.24 3.81 25.68 4.06 25.05 4.38 10.18 0.81 5.56 2.19 17.18 9.13 17.18 9.13 16.43 9.69 15.8 10.13 15.37 10.5 15.12 10.69 14.99 10.88 14.81 11 14.68 11.19 14.56 11.31 14.49 11.44 14.43 11.56 14.37 11.69 14.31 11.75 14.31 11.88 14.31 11.94 14.31 12.06 14.31 12.13 14.31 12.19 14.37 12.25 14.43 12.31 14.49 12.44 14.81 12.69 14.93 12.88 14.99 13 14.99 13 15.24 13.38 15.37 13.56 15.49 13.69 15.55 13.75 15.62 13.81 15.74 13.88 15.8 13.94 15.93 13.94 15.99 14 16.12 14 16.3 14 16.43 14 16.62 13.94 16.8 13.94 16.99 13.88 17.18 13.81 17.43 13.69 17.68 13.63 17.93 13.5 18.24 13.38 18.55 13.19 19.3 12.81 20.11 12.31 21.05 11.75 34.42 19.81 15.8 35.31 2.62 32.81 0 34.13 10.37 41.75 13.24 54.06 15.55 52.31 18.55 39.44 40.54 29.06 42.67 44.31 42.67 44.31 41.73 44.88 40.98 45.44 40.29 45.94 40.04 46.13 39.79 46.38 39.54 46.56 39.35 46.75 39.17 46.94 39.04 47.06 38.92 47.25 38.79 47.38 38.73 47.5 38.6 47.69 38.6 47.75 38.54 47.88 38.54 48 38.48 48.13 38.48 48.19 38.54 48.31 38.54 48.44 38.6 48.5 38.67 48.69 38.79 48.88 39.04 49.19 39.04 49.19 39.1 49.38 39.23 49.56 39.35 49.88 39.42 50 39.48 50.06 39.54 50.13 39.6 50.19 39.67 50.25 39.73 50.25 39.79 50.31 39.92 50.31 40.04 50.31 40.17 50.31 40.29 50.31 40.42 50.31 40.6 50.25 40.79 50.19 40.98 50.13 41.23 50 41.48 49.88 42.04 49.63 42.73 49.25 43.54 48.81 45.29 62 48.48 58.44 51.16 43.69 51.16 43.69 51.66 43.25 52.1 42.88 52.54 42.5 52.97 42.13 53.35 41.75 53.66 41.38 54.04 41.06 54.28 40.75 54.53 40.44 54.72 40.13 54.91 39.88 55.03 39.63 55.1 39.56 55.1 39.44 55.1 39.31 55.16 39.25 55.16 39.19 55.1 39.06 55.1 39 55.1 38.94 55.1 38.94 55.03 38.88 54.91 38.81 54.78 38.75 54.66 38.69 54.53 38.69 54.41 38.69 54.22 38.69 53.97 38.69 53.79 38.75 53.54 38.75 53.29 38.81 53.04 38.88 52.47 39.06 51.85 39.31 55.78 20.5 55.78 20.5 56.72 19.88 57.72 19.19 59.1 18.25 59.85 17.75 60.66 17.19 61.53 16.56 62.41 15.94 63.28 15.25 64.22 14.5 65.16 13.75 66.09 13.06 66.97 12.25 67.9 11.5 68.72 10.69 69.15 10.31 69.59 9.88 69.97 9.5 70.34 9.06 70.72 8.69 71.09 8.31 71.4 7.88 71.78 7.5 72.03 7.13 72.34 6.69 72.65 6.38 72.9 5.94 73.09 5.56 73.28 5.19 73.46 4.88 73.65 4.5 73.78 4.13 73.84 3.81 73.96 3.44 73.96 3.13 73.96 3 73.96 2.81 73.96 2.63 73.96 2.5 73.96 2.38 73.9 2.19 73.9 2.06 73.84 1.94 73.78 1.75 73.71 1.63 73.65 1.5 73.59 1.38 73.59 1.38 73.59 1.38"/></g></g></svg>