<svg xmlns="http://www.w3.org/2000/svg" viewBox="0 0 80.34 88.2"><defs><style>.cls-1{fill:#444;fill-rule:evenodd;opacity:.4}</style></defs><title>whimsical</title><g id="Layer_2" data-name="Layer 2"><g id="Layer_1-2" data-name="Layer 1"><path class="cls-1" d="M189.13,560.71c.11-1.21.18-2.43.18-3.67a36.06,36.06,0,0,0-.23-4,4.47,4.47,0,0,0-2-8.68,36.46,36.46,0,0,0-3.36-6.94,4.47,4.47,0,0,0-5.54-7,37.3,37.3,0,0,0-6.08-4.83,4.47,4.47,0,0,0-8-3.87,37.15,37.15,0,0,0-7.63-1.76,4.47,4.47,0,0,0-8.87,0,37.24,37.24,0,0,0-7.71,1.75,4.47,4.47,0,0,0-8,3.83,37.54,37.54,0,0,0-6.25,5,4.48,4.48,0,0,0-5.48,6.92,37.31,37.31,0,0,0-3.47,7.23,4.48,4.48,0,0,0-2,8.59,37.54,37.54,0,0,0-.2,3.84,38.85,38.85,0,0,0,.25,4.21,4.48,4.48,0,0,0,2,8.58,37.49,37.49,0,0,0,3.53,7.19,4.48,4.48,0,0,0,5.57,6.86,37.92,37.92,0,0,0,6.29,4.9,4.46,4.46,0,0,0,2,5.11l-4.3,10.31h5.17l4.64-11a4.47,4.47,0,0,0,.5-.63,36.78,36.78,0,0,0,7.74,1.68,4.46,4.46,0,0,0,8.86-.13,37.39,37.39,0,0,0,7.27-1.72l5,11.83h5.17L170,594l.19-.07a4.47,4.47,0,0,0,2.24-5.62,37.82,37.82,0,0,0,6-4.89,4.47,4.47,0,0,0,5.47-7,37.46,37.46,0,0,0,3.29-7,4.47,4.47,0,0,0,2-8.7Zm-8.25-22.14a34.74,34.74,0,0,1,3.5,7.23,4.54,4.54,0,0,0-1.09,3.16l-24.1,5.5a7.72,7.72,0,0,0-.89-1.74l19.26-15.36A4.5,4.5,0,0,0,180.88,538.57ZM170.09,527.9a34.87,34.87,0,0,1,6.25,5,4.46,4.46,0,0,0,.36,3.39l-19.31,15.41a7.43,7.43,0,0,0-1.58-1.15l10.69-22.22A4.48,4.48,0,0,0,170.09,527.9Zm-14.32-5a33.76,33.76,0,0,1,7.67,1.8,4.46,4.46,0,0,0,1.81,3L154.52,550a7,7,0,0,0-1.91-.37V524.92A4.51,4.51,0,0,0,155.77,522.88Zm-15.16,1.71a34,34,0,0,1,7.57-1.73,4.48,4.48,0,0,0,3,2v24.73a7.56,7.56,0,0,0-1.9.47l-10.68-22.19A4.52,4.52,0,0,0,140.61,524.59Zm-13,8.12a34.16,34.16,0,0,1,6-4.78,4.51,4.51,0,0,0,3.69.57l10.72,22.26a7.19,7.19,0,0,0-1.47,1.28l-19.28-15.37A4.54,4.54,0,0,0,127.63,532.71Zm-4.84,6.12a4.5,4.5,0,0,0,3.66-1.08l19.32,15.41A7.71,7.71,0,0,0,145,555l-24-5.49a4.49,4.49,0,0,0-1.49-3.72A34.4,34.4,0,0,1,122.79,538.83Zm-5,22.22a35.38,35.38,0,0,1-.25-4c0-1.23.07-2.44.19-3.64a4.49,4.49,0,0,0,2.91-2.57l24.11,5.5c0,.24-.07.47-.07.71a8.13,8.13,0,0,0,.13,1.23l-24,5.49A4.47,4.47,0,0,0,117.77,561.05Zm5.2,14.51a34.65,34.65,0,0,1-3.39-6.88,4.48,4.48,0,0,0,1.47-3.55l24.12-5.51a7.65,7.65,0,0,0,.89,1.73l-19.28,15.38A4.48,4.48,0,0,0,123,575.56Zm11,10.77a34.45,34.45,0,0,1-6.09-4.72,4.48,4.48,0,0,0-.24-3.78L147,562.4c.08.08.14.17.23.25l-9.64,23.09A4.53,4.53,0,0,0,134,586.33Zm14.55,4.94a34.65,34.65,0,0,1-7.37-1.59l10.58-25.15,0,0h0v24.66A4.5,4.5,0,0,0,148.52,591.27Zm7.58-.11a4.46,4.46,0,0,0-3-2V566.37l9.75,23.22A34.49,34.49,0,0,1,156.1,591.16ZM176.58,581a34.54,34.54,0,0,1-6.19,5,4.49,4.49,0,0,0-3.41-.42l-4.11-8.53-5.94-14.24a9.57,9.57,0,0,0,.79-.77L177,577.42A4.46,4.46,0,0,0,176.58,581Zm4.47-5.74a4.5,4.5,0,0,0-3.15,1.11l-19.33-15.41a7.49,7.49,0,0,0,.79-1.78l24,5.48A4.5,4.5,0,0,0,184.5,568,33.83,33.83,0,0,1,181.05,575.22Zm5-14.33a4.45,4.45,0,0,0-2.36,2.37l-24.08-5.5c0-.23,0-.47,0-.72a7.12,7.12,0,0,0-.13-1.23l24-5.49a4.46,4.46,0,0,0,2.43,2.52,34.31,34.31,0,0,1,.29,4.2A34.91,34.91,0,0,1,186.08,560.89Z" transform="translate(-112 -516)"/></g></g></svg>